<svg xmlns="http://www.w3.org/2000/svg" viewBox="0 0 495.52 75.07"><defs><style>.cls-1{fill:#8a8a8d;}.cls-2{fill:#00953a;}</style></defs><title>VEXpro-horizontal-FC</title><g id="Layer_2" data-name="Layer 2"><g id="Logos_All" data-name="Logos All"><path class="cls-1" d="M214.54,30a.89.89,0,0,0-.5.16l-20.6,14.33L172.73,30.2a.89.89,0,0,0-.5-.16H154a.87.87,0,0,0-.49,1.59l29.48,20L151,73a.87.87,0,0,0-.38.72.78.78,0,0,0,0,.25.87.87,0,0,0,.83.62h18.59a.85.85,0,0,0,.5-.16l22.82-15.79L216,74.46a.87.87,0,0,0,.5.16h18.29a.87.87,0,0,0,.83-.62.85.85,0,0,0,0-.25.87.87,0,0,0-.38-.72L203.53,51.6l29.58-20a.87.87,0,0,0,.38-.72.93.93,0,0,0,0-.25.87.87,0,0,0-.83-.62Z"/><path class="cls-1" d="M71.52,30a.88.88,0,0,0-.68.32L43.59,63.71,16.82,30.37a.86.86,0,0,0-.68-.33H.87A.87.87,0,0,0,.2,31.47L35.47,74.3a.86.86,0,0,0,.67.32H51a.86.86,0,0,0,.67-.32L87.46,31.48A.87.87,0,0,0,86.79,30Z"/><path class="cls-2" d="M95.66,30a25.7,25.7,0,0,1-2.81-12.1C92.85,8.19,97.73,0,103.68,0h37.64c2,0,3.66,2.73,3.66,6s-1.65,6-3.66,6H103.68c-2,0-3.54,2.73-3.54,5.85s1.42,6.15,3.54,6.15h37.64c2,0,3.66,2.69,3.66,6h0c0,3.27-1.65,6-3.66,6H103.68c-2.12,0-3.54,3-3.54,6.14S101.68,48,103.68,48h37.64c2,0,3.66,2.73,3.66,6s-1.65,6-3.66,6H103.68c-6,0-10.84-8.19-10.84-17.95a25.71,25.71,0,0,1,2.81-12.1Z"/><path class="cls-1" d="M232.79,62.34a3,3,0,0,1,1.45.38,2.7,2.7,0,0,1,1.1,1.09,3,3,0,0,1,.39,1.47,3,3,0,0,1-.39,1.46,2.74,2.74,0,0,1-1.09,1.09,3,3,0,0,1-2.92,0,2.74,2.74,0,0,1-1.09-1.09,2.94,2.94,0,0,1-.39-1.46,3,3,0,0,1,.39-1.47,2.71,2.71,0,0,1,1.1-1.09A3,3,0,0,1,232.79,62.34Zm0,.49a2.49,2.49,0,0,0-1.2.32,2.28,2.28,0,0,0-.91.9,2.44,2.44,0,0,0,0,2.44,2.31,2.31,0,0,0,.91.9,2.44,2.44,0,0,0,2.44,0,2.28,2.28,0,0,0,.9-.9,2.47,2.47,0,0,0,.32-1.21,2.51,2.51,0,0,0-.33-1.23,2.26,2.26,0,0,0-.91-.9A2.49,2.49,0,0,0,232.79,62.82Zm-1.29,4.07V63.74h1.09a2.69,2.69,0,0,1,.8.09.79.79,0,0,1,.4.3.82.82,0,0,1,.15.46.86.86,0,0,1-.25.6,1,1,0,0,1-.65.29.89.89,0,0,1,.27.17,3.65,3.65,0,0,1,.47.63l.39.62h-.62l-.28-.5a2.54,2.54,0,0,0-.53-.73.66.66,0,0,0-.41-.11H232v1.34Zm.51-1.78h.62a1,1,0,0,0,.6-.13.46.46,0,0,0,.08-.6.48.48,0,0,0-.22-.17,1.58,1.58,0,0,0-.51-.05H232Z"/><path class="cls-2" d="M258.17,74.51l19.77-51.89h42.37c5.09,0,8.65.86,11,2.57h0a8.33,8.33,0,0,1,3.4,7.17h0a25.47,25.47,0,0,1-2,8.7h0l-1.63,4.27C328.26,53,321.5,62,310.08,62h-29.7L275.6,74.51Zm16.06-2L279,60h31.07c10.22,0,16.44-8.09,19.21-15.35h0l1.63-4.27a23.53,23.53,0,0,0,1.84-8h0a6.32,6.32,0,0,0-2.57-5.56h0c-1.84-1.33-5-2.2-9.88-2.19h-41L261.06,72.53Z"/><path class="cls-2" d="M283.42,48.57a1,1,0,0,1,1-1h23.77c3.1,0,5-1.93,6.05-4.67h0L315,41a5.94,5.94,0,0,0,.47-2h0a1.38,1.38,0,0,0-.66-1.32h0a6,6,0,0,0-3.12-.6H289.19a1,1,0,0,1-1-1h0a1,1,0,0,1,1-1h22.46a7.85,7.85,0,0,1,4.2.91h0a3.4,3.4,0,0,1,1.58,3h0a7.89,7.89,0,0,1-.6,2.75h0l-.73,1.93c-1.19,3.2-3.84,6-7.91,5.95H284.42a1,1,0,0,1-1-1Z"/><path class="cls-2" d="M378.69,74.52l2.8-7.35a11.49,11.49,0,0,0,.94-3.74h0c0-.84-.19-1.06-.63-1.36h0a6.18,6.18,0,0,0-3-.51H355.44l-4.94,13H333.07l19.76-51.89h46.85c4.13,0,7.09.68,9.12,2.13h0a7.17,7.17,0,0,1,2.91,6.19h0a23,23,0,0,1-1.79,7.85h0L408.72,42c-2.18,5.87-5.05,10-10.93,12.06h0a6.47,6.47,0,0,1,1.21.79h0a5.65,5.65,0,0,1,1.93,4.58h0a17.32,17.32,0,0,1-1.35,6h0l-3.47,9.12Zm-42.73-2h13.17l4.93-13H378.8a7.9,7.9,0,0,1,4,.79h0a3.36,3.36,0,0,1,1.6,3.07h0a13.25,13.25,0,0,1-1.07,4.45h0l-1.77,4.64h13.17l3-7.83a15.45,15.45,0,0,0,1.22-5.3h0a3.64,3.64,0,0,0-1.22-3.06h0a7.53,7.53,0,0,0-3.4-1.34h0l-1.15-.23.65-1.75.53-.11c7.36-1.65,9.93-5.07,12.5-11.65h0l1.21-3.17a21.22,21.22,0,0,0,1.66-7.15h0a5.15,5.15,0,0,0-2.09-4.57h0c-1.48-1.07-4-1.76-8-1.76H354.21L336,72.53Z"/><path class="cls-2" d="M358.48,48.16a1,1,0,0,1,1-1h25.29a7.15,7.15,0,0,0,4.29-1.09h0a7.15,7.15,0,0,0,2.43-3.5h0l.63-1.65a6.83,6.83,0,0,0,.54-2.25h0c-.06-.77-.15-.86-.82-1.21h0A11.21,11.21,0,0,0,388,37H364.09a1,1,0,0,1-1-1h0a1,1,0,0,1,1-1H388a12.68,12.68,0,0,1,4.57.58h0a3.12,3.12,0,0,1,2.06,3.05h0a8.56,8.56,0,0,1-.66,3h0l-.63,1.65a9.1,9.1,0,0,1-3.14,4.42h0a9.17,9.17,0,0,1-5.43,1.46H359.48a1,1,0,0,1-1-1Z"/><path class="cls-2" d="M433.53,75.07c-5.33,0-9.7-.49-12.91-2h0a8.7,8.7,0,0,1-5.13-8.44h0a25.9,25.9,0,0,1,2-8.93h0l5.67-14.88c2.83-7.45,6.76-12.21,11.79-15h0c5-2.81,11-3.68,18-3.68h24.53c5.33,0,9.7.49,12.9,2h0a8.69,8.69,0,0,1,5.13,8.44h0a25.77,25.77,0,0,1-2,8.93h0l-5.67,14.88c-2.83,7.45-6.76,12.21-11.79,15h0c-5,2.81-11,3.68-18,3.68H433.53Zm-14.17-18.7a23.86,23.86,0,0,0-1.87,8.23h0c0,3.44,1.35,5.3,4,6.65h0c2.68,1.32,6.83,1.84,12,1.84h24.53c6.81,0,12.46-.86,17-3.42h0c4.56-2.56,8.17-6.83,10.91-14h0l5.67-14.88a23.9,23.9,0,0,0,1.87-8.22h0c0-3.44-1.35-5.29-4-6.65h0c-2.68-1.32-6.83-1.84-12-1.84H453c-6.81,0-12.46.86-17,3.42h0c-4.56,2.56-8.17,6.83-10.91,14h0l-5.67,14.88Z"/><path class="cls-2" d="M460.46,62.25H435.81a1,1,0,0,1-1-1h0a1,1,0,0,1,1-1h24.65c3.51,0,5.65-.65,7.32-2h0c1.67-1.4,3-3.73,4.31-7.3h0l2-5.38a15.88,15.88,0,0,0,1.28-5.18h0a2.67,2.67,0,0,0-1.15-2.47h0c-.84-.58-2.44-1-5-1h-23a1,1,0,0,1-1-1h0a1,1,0,0,1,1-1h23c2.73,0,4.69.4,6.09,1.33h0a4.69,4.69,0,0,1,2,4.12h0A17.51,17.51,0,0,1,476,46.24h0l-2,5.38c-1.4,3.66-2.78,6.33-4.89,8.11h0c-2.11,1.79-4.85,2.52-8.56,2.52h0Z"/></g></g></svg>