<svg xmlns="http://www.w3.org/2000/svg" viewBox="0 0 237.99 139.26"><defs><style>.cls-1{fill:#8a8a8d;}.cls-2{fill:#00953a;}</style></defs><title>VEXpro-stacked-FC</title><g id="Layer_2" data-name="Layer 2"><g id="Logos_All" data-name="Logos All"><path class="cls-1" d="M216.81,30a.89.89,0,0,0-.5.16l-20.6,14.33L175,30.2a.89.89,0,0,0-.5-.16H156.31a.87.87,0,0,0-.49,1.59l29.48,20L153.31,73a.87.87,0,0,0-.38.72.78.78,0,0,0,0,.25.87.87,0,0,0,.83.62h18.59a.85.85,0,0,0,.5-.16L195.7,58.67l22.62,15.79a.87.87,0,0,0,.5.16h18.29a.87.87,0,0,0,.83-.62.85.85,0,0,0,0-.25.87.87,0,0,0-.38-.72L205.81,51.6l29.58-20a.87.87,0,0,0,.38-.72.93.93,0,0,0,0-.25.87.87,0,0,0-.83-.62Z"/><path class="cls-1" d="M73.79,30a.88.88,0,0,0-.68.32L45.86,63.71,19.1,30.37a.86.86,0,0,0-.68-.33H3.14a.87.87,0,0,0-.67,1.42L37.74,74.3a.86.86,0,0,0,.67.32H53.29A.86.86,0,0,0,54,74.3L89.73,31.48A.87.87,0,0,0,89.06,30Z"/><path class="cls-2" d="M97.93,30a25.7,25.7,0,0,1-2.81-12.1C95.12,8.19,100,0,106,0H143.6c2,0,3.66,2.73,3.66,6s-1.65,6-3.66,6H106c-2,0-3.54,2.73-3.54,5.85s1.42,6.15,3.54,6.15H143.6c2,0,3.66,2.69,3.66,6h0c0,3.27-1.65,6-3.66,6H106c-2.12,0-3.54,3-3.54,6.14S104,48,106,48H143.6c2,0,3.66,2.73,3.66,6s-1.65,6-3.66,6H106c-6,0-10.84-8.19-10.84-17.95a25.71,25.71,0,0,1,2.81-12.1Z"/><path class="cls-1" d="M235.06,62.34a3,3,0,0,1,1.45.38,2.7,2.7,0,0,1,1.1,1.09,3,3,0,0,1,.39,1.47,3,3,0,0,1-.39,1.46,2.74,2.74,0,0,1-1.09,1.09,3,3,0,0,1-2.92,0,2.74,2.74,0,0,1-1.09-1.09,2.94,2.94,0,0,1-.39-1.46,3,3,0,0,1,.39-1.47,2.71,2.71,0,0,1,1.1-1.09A3,3,0,0,1,235.06,62.34Zm0,.49a2.49,2.49,0,0,0-1.2.32,2.28,2.28,0,0,0-.91.9,2.44,2.44,0,0,0,0,2.44,2.31,2.31,0,0,0,.91.9,2.44,2.44,0,0,0,2.44,0,2.28,2.28,0,0,0,.9-.9,2.47,2.47,0,0,0,.32-1.21,2.51,2.51,0,0,0-.33-1.23,2.26,2.26,0,0,0-.91-.9A2.49,2.49,0,0,0,235.06,62.82Zm-1.29,4.07V63.74h1.09a2.69,2.69,0,0,1,.8.09.79.79,0,0,1,.4.3.82.82,0,0,1,.15.46.86.86,0,0,1-.25.6,1,1,0,0,1-.65.29.89.89,0,0,1,.27.17,3.65,3.65,0,0,1,.47.63l.39.62h-.62l-.28-.5a2.54,2.54,0,0,0-.53-.73.66.66,0,0,0-.41-.11h-.3v1.34Zm.51-1.78h.62a1,1,0,0,0,.6-.13.46.46,0,0,0,.08-.6.48.48,0,0,0-.22-.17,1.58,1.58,0,0,0-.51-.05h-.58Z"/><path class="cls-2" d="M0,138.71,19.77,86.82H62.14c5.09,0,8.65.86,11,2.57h0a8.33,8.33,0,0,1,3.4,7.17h0a25.47,25.47,0,0,1-2,8.7h0L73,109.54c-2.89,7.63-9.65,16.61-21.07,16.63H22.21l-4.78,12.54Zm16.06-2,4.78-12.54H51.91c10.22,0,16.44-8.09,19.21-15.35h0l1.63-4.27a23.53,23.53,0,0,0,1.84-8h0A6.32,6.32,0,0,0,72,91h0c-1.84-1.33-5-2.2-9.88-2.19h-41L2.89,136.72Z"/><path class="cls-2" d="M25.25,112.77a1,1,0,0,1,1-1H50c3.1,0,5-1.93,6.05-4.67h0l.73-1.93a5.94,5.94,0,0,0,.46-2h0a1.38,1.38,0,0,0-.66-1.32h0a6,6,0,0,0-3.12-.6H31a1,1,0,0,1-1-1h0a1,1,0,0,1,1-1H53.49a7.85,7.85,0,0,1,4.2.91h0a3.4,3.4,0,0,1,1.58,3h0a7.89,7.89,0,0,1-.6,2.75h0l-.73,1.93c-1.19,3.2-3.84,6-7.91,5.95H26.25a1,1,0,0,1-1-1Z"/><path class="cls-2" d="M120.52,138.71l2.8-7.35a11.49,11.49,0,0,0,.94-3.74h0c0-.84-.19-1.06-.63-1.36h0a6.18,6.18,0,0,0-3-.51H97.27l-4.94,13H74.9L94.67,86.83h46.85c4.13,0,7.09.68,9.12,2.13h0a7.17,7.17,0,0,1,2.91,6.19h0a23,23,0,0,1-1.79,7.85h0l-1.21,3.17c-2.18,5.87-5.05,10-10.93,12.06h0a6.47,6.47,0,0,1,1.21.79h0a5.65,5.65,0,0,1,1.93,4.58h0a17.32,17.32,0,0,1-1.35,6h0l-3.47,9.12Zm-42.73-2H91l4.93-13h24.73a7.9,7.9,0,0,1,4,.79h0a3.36,3.36,0,0,1,1.6,3.07h0a13.25,13.25,0,0,1-1.07,4.45h0l-1.77,4.64h13.17l3-7.83a15.45,15.45,0,0,0,1.22-5.3h0a3.64,3.64,0,0,0-1.22-3.06h0a7.53,7.53,0,0,0-3.4-1.34h0L135,119l.65-1.75.53-.11c7.36-1.65,9.93-5.07,12.5-11.65h0l1.21-3.17a21.22,21.22,0,0,0,1.66-7.15h0a5.15,5.15,0,0,0-2.09-4.57h0c-1.48-1.07-4-1.76-8-1.76H96L77.79,136.72Z"/><path class="cls-2" d="M100.31,112.35a1,1,0,0,1,1-1H126.6a7.15,7.15,0,0,0,4.29-1.09h0a7.15,7.15,0,0,0,2.43-3.5h0l.63-1.65a6.83,6.83,0,0,0,.54-2.25h0c-.06-.77-.15-.86-.82-1.21h0a11.21,11.21,0,0,0-3.81-.43H105.92a1,1,0,0,1-1-1h0a1,1,0,0,1,1-1h23.91a12.68,12.68,0,0,1,4.57.58h0a3.12,3.12,0,0,1,2.06,3.05h0a8.56,8.56,0,0,1-.66,3h0l-.63,1.65a9.1,9.1,0,0,1-3.14,4.42h0a9.17,9.17,0,0,1-5.43,1.46H101.31a1,1,0,0,1-1-1Z"/><path class="cls-2" d="M175.36,139.26c-5.33,0-9.7-.49-12.91-2h0a8.7,8.7,0,0,1-5.13-8.44h0a25.9,25.9,0,0,1,2-8.93h0L165,105c2.83-7.45,6.76-12.21,11.79-15h0c5-2.81,11-3.68,18-3.68h24.53c5.33,0,9.7.49,12.9,2h0a8.69,8.69,0,0,1,5.13,8.44h0a25.77,25.77,0,0,1-2,8.93h0l-5.67,14.88c-2.83,7.45-6.76,12.21-11.79,15h0c-5,2.81-11,3.68-18,3.68H175.36Zm-14.17-18.7a23.86,23.86,0,0,0-1.87,8.23h0c0,3.44,1.35,5.3,4,6.65h0c2.68,1.32,6.83,1.84,12,1.84h24.53c6.81,0,12.46-.86,17-3.42h0c4.56-2.56,8.17-6.83,10.91-14h0L233.49,105a23.9,23.9,0,0,0,1.87-8.22h0c0-3.44-1.35-5.29-4-6.65h0c-2.68-1.32-6.83-1.84-12-1.84H194.79c-6.81,0-12.46.86-17,3.42h0c-4.56,2.56-8.17,6.83-10.91,14h0l-5.67,14.88Z"/><path class="cls-2" d="M202.29,126.45H177.64a1,1,0,0,1-1-1h0a1,1,0,0,1,1-1h24.65c3.51,0,5.65-.65,7.32-2h0c1.67-1.4,3-3.73,4.31-7.3h0l2-5.38a15.88,15.88,0,0,0,1.28-5.18h0a2.67,2.67,0,0,0-1.15-2.47h0c-.84-.58-2.44-1-5-1h-23a1,1,0,0,1-1-1h0a1,1,0,0,1,1-1h23c2.73,0,4.69.4,6.09,1.33h0a4.69,4.69,0,0,1,2,4.12h0a17.51,17.51,0,0,1-1.41,5.89h0l-2,5.38c-1.4,3.66-2.78,6.33-4.89,8.11h0c-2.11,1.79-4.85,2.52-8.56,2.52h0Z"/></g></g></svg>